%TF.GenerationSoftware,KiCad,Pcbnew,9.0.1*%
%TF.CreationDate,2025-05-06T12:55:39-06:00*%
%TF.ProjectId,2025_04_STM32F103_RobotBrain,32303235-5f30-4345-9f53-544d33324631,rev?*%
%TF.SameCoordinates,Original*%
%TF.FileFunction,Copper,L1,Top*%
%TF.FilePolarity,Positive*%
%FSLAX46Y46*%
G04 Gerber Fmt 4.6, Leading zero omitted, Abs format (unit mm)*
G04 Created by KiCad (PCBNEW 9.0.1) date 2025-05-06 12:55:39*
%MOMM*%
%LPD*%
G01*
G04 APERTURE LIST*
G04 Aperture macros list*
%AMRoundRect*
0 Rectangle with rounded corners*
0 $1 Rounding radius*
0 $2 $3 $4 $5 $6 $7 $8 $9 X,Y pos of 4 corners*
0 Add a 4 corners polygon primitive as box body*
4,1,4,$2,$3,$4,$5,$6,$7,$8,$9,$2,$3,0*
0 Add four circle primitives for the rounded corners*
1,1,$1+$1,$2,$3*
1,1,$1+$1,$4,$5*
1,1,$1+$1,$6,$7*
1,1,$1+$1,$8,$9*
0 Add four rect primitives between the rounded corners*
20,1,$1+$1,$2,$3,$4,$5,0*
20,1,$1+$1,$4,$5,$6,$7,0*
20,1,$1+$1,$6,$7,$8,$9,0*
20,1,$1+$1,$8,$9,$2,$3,0*%
G04 Aperture macros list end*
%TA.AperFunction,SMDPad,CuDef*%
%ADD10RoundRect,0.250000X-0.450000X0.350000X-0.450000X-0.350000X0.450000X-0.350000X0.450000X0.350000X0*%
%TD*%
%TA.AperFunction,SMDPad,CuDef*%
%ADD11RoundRect,0.075000X0.075000X-0.700000X0.075000X0.700000X-0.075000X0.700000X-0.075000X-0.700000X0*%
%TD*%
%TA.AperFunction,SMDPad,CuDef*%
%ADD12RoundRect,0.075000X0.700000X-0.075000X0.700000X0.075000X-0.700000X0.075000X-0.700000X-0.075000X0*%
%TD*%
%TA.AperFunction,SMDPad,CuDef*%
%ADD13RoundRect,0.250000X0.350000X0.450000X-0.350000X0.450000X-0.350000X-0.450000X0.350000X-0.450000X0*%
%TD*%
%TA.AperFunction,SMDPad,CuDef*%
%ADD14RoundRect,0.250000X0.450000X-0.350000X0.450000X0.350000X-0.450000X0.350000X-0.450000X-0.350000X0*%
%TD*%
%TA.AperFunction,SMDPad,CuDef*%
%ADD15RoundRect,0.250000X-0.337500X-0.475000X0.337500X-0.475000X0.337500X0.475000X-0.337500X0.475000X0*%
%TD*%
%TA.AperFunction,ComponentPad*%
%ADD16R,1.700000X1.700000*%
%TD*%
%TA.AperFunction,ComponentPad*%
%ADD17O,1.700000X1.700000*%
%TD*%
%TA.AperFunction,ComponentPad*%
%ADD18RoundRect,0.250000X0.725000X-0.600000X0.725000X0.600000X-0.725000X0.600000X-0.725000X-0.600000X0*%
%TD*%
%TA.AperFunction,ComponentPad*%
%ADD19O,1.950000X1.700000*%
%TD*%
%TA.AperFunction,SMDPad,CuDef*%
%ADD20RoundRect,0.250000X0.450000X-0.325000X0.450000X0.325000X-0.450000X0.325000X-0.450000X-0.325000X0*%
%TD*%
%TA.AperFunction,SMDPad,CuDef*%
%ADD21RoundRect,0.150000X-0.587500X-0.150000X0.587500X-0.150000X0.587500X0.150000X-0.587500X0.150000X0*%
%TD*%
%TA.AperFunction,SMDPad,CuDef*%
%ADD22RoundRect,0.250000X-0.450000X0.325000X-0.450000X-0.325000X0.450000X-0.325000X0.450000X0.325000X0*%
%TD*%
%TA.AperFunction,SMDPad,CuDef*%
%ADD23RoundRect,0.250000X-0.350000X-0.450000X0.350000X-0.450000X0.350000X0.450000X-0.350000X0.450000X0*%
%TD*%
%TA.AperFunction,SMDPad,CuDef*%
%ADD24R,1.000000X1.000000*%
%TD*%
%TA.AperFunction,SMDPad,CuDef*%
%ADD25RoundRect,0.250000X0.337500X0.475000X-0.337500X0.475000X-0.337500X-0.475000X0.337500X-0.475000X0*%
%TD*%
%TA.AperFunction,ComponentPad*%
%ADD26RoundRect,0.250000X-0.725000X0.600000X-0.725000X-0.600000X0.725000X-0.600000X0.725000X0.600000X0*%
%TD*%
%TA.AperFunction,SMDPad,CuDef*%
%ADD27R,1.400000X0.600000*%
%TD*%
%TA.AperFunction,SMDPad,CuDef*%
%ADD28R,1.400000X0.400000*%
%TD*%
%TA.AperFunction,SMDPad,CuDef*%
%ADD29R,0.400000X1.400000*%
%TD*%
%TA.AperFunction,SMDPad,CuDef*%
%ADD30RoundRect,0.250000X-0.475000X0.337500X-0.475000X-0.337500X0.475000X-0.337500X0.475000X0.337500X0*%
%TD*%
%TA.AperFunction,SMDPad,CuDef*%
%ADD31RoundRect,0.150000X-0.150000X0.512500X-0.150000X-0.512500X0.150000X-0.512500X0.150000X0.512500X0*%
%TD*%
%TA.AperFunction,ComponentPad*%
%ADD32RoundRect,0.250000X-0.600000X-0.725000X0.600000X-0.725000X0.600000X0.725000X-0.600000X0.725000X0*%
%TD*%
%TA.AperFunction,ComponentPad*%
%ADD33O,1.700000X1.950000*%
%TD*%
%TA.AperFunction,SMDPad,CuDef*%
%ADD34R,1.400000X1.200000*%
%TD*%
%TA.AperFunction,SMDPad,CuDef*%
%ADD35R,2.300000X1.500000*%
%TD*%
%TA.AperFunction,ComponentPad*%
%ADD36RoundRect,0.250000X-0.600000X-0.750000X0.600000X-0.750000X0.600000X0.750000X-0.600000X0.750000X0*%
%TD*%
%TA.AperFunction,ComponentPad*%
%ADD37O,1.700000X2.000000*%
%TD*%
%TA.AperFunction,SMDPad,CuDef*%
%ADD38RoundRect,0.250000X0.325000X0.450000X-0.325000X0.450000X-0.325000X-0.450000X0.325000X-0.450000X0*%
%TD*%
%TA.AperFunction,SMDPad,CuDef*%
%ADD39RoundRect,0.250000X0.475000X-0.337500X0.475000X0.337500X-0.475000X0.337500X-0.475000X-0.337500X0*%
%TD*%
%TA.AperFunction,SMDPad,CuDef*%
%ADD40RoundRect,0.250000X-0.250000X0.525000X-0.250000X-0.525000X0.250000X-0.525000X0.250000X0.525000X0*%
%TD*%
%TA.AperFunction,SMDPad,CuDef*%
%ADD41R,1.200000X2.500000*%
%TD*%
%TA.AperFunction,SMDPad,CuDef*%
%ADD42R,0.500000X2.000000*%
%TD*%
%TA.AperFunction,SMDPad,CuDef*%
%ADD43R,2.000000X1.700000*%
%TD*%
%TA.AperFunction,ViaPad*%
%ADD44C,0.600000*%
%TD*%
%TA.AperFunction,Conductor*%
%ADD45C,0.254000*%
%TD*%
%TA.AperFunction,Conductor*%
%ADD46C,0.381000*%
%TD*%
%TA.AperFunction,Conductor*%
%ADD47C,0.508000*%
%TD*%
%TA.AperFunction,Conductor*%
%ADD48C,0.200000*%
%TD*%
G04 APERTURE END LIST*
D10*
%TO.P,R2,1*%
%TO.N,/D+*%
X137680000Y-41715000D03*
%TO.P,R2,2*%
%TO.N,/USB_CONN_D+*%
X137680000Y-43715000D03*
%TD*%
D11*
%TO.P,U1,1,VBAT*%
%TO.N,unconnected-(U1-VBAT-Pad1)*%
X136990000Y-72760000D03*
%TO.P,U1,2,PC13*%
%TO.N,/USER_LED*%
X137490000Y-72760000D03*
%TO.P,U1,3,PC14*%
%TO.N,unconnected-(U1-PC14-Pad3)*%
X137990000Y-72760000D03*
%TO.P,U1,4,PC15*%
%TO.N,unconnected-(U1-PC15-Pad4)*%
X138490000Y-72760000D03*
%TO.P,U1,5,RCC_OSC_IN*%
%TO.N,/OSC_IN*%
X138990000Y-72760000D03*
%TO.P,U1,6,RCC_OSC_OUT*%
%TO.N,/OSC_OUT*%
X139490000Y-72760000D03*
%TO.P,U1,7,NRST*%
%TO.N,/RESET*%
X139990000Y-72760000D03*
%TO.P,U1,8,PC0*%
%TO.N,unconnected-(U1-PC0-Pad8)*%
X140490000Y-72760000D03*
%TO.P,U1,9,PC1*%
%TO.N,unconnected-(U1-PC1-Pad9)*%
X140990000Y-72760000D03*
%TO.P,U1,10,PC2*%
%TO.N,unconnected-(U1-PC2-Pad10)*%
X141490000Y-72760000D03*
%TO.P,U1,11,PC3*%
%TO.N,unconnected-(U1-PC3-Pad11)*%
X141990000Y-72760000D03*
%TO.P,U1,12,VSSA*%
%TO.N,GND*%
X142490000Y-72760000D03*
%TO.P,U1,13,VDDA*%
%TO.N,+3V3*%
X142990000Y-72760000D03*
%TO.P,U1,14,PA0*%
%TO.N,/ULTRA_TRIG*%
X143490000Y-72760000D03*
%TO.P,U1,15,PA1*%
%TO.N,Net-(U1-PA1)*%
X143990000Y-72760000D03*
%TO.P,U1,16,PA2*%
X144490000Y-72760000D03*
D12*
%TO.P,U1,17,PA3*%
%TO.N,/ULTRA_ECHO*%
X146415000Y-70835000D03*
%TO.P,U1,18,VSS*%
%TO.N,GND*%
X146415000Y-70335000D03*
%TO.P,U1,19,VDD*%
%TO.N,+3V3*%
X146415000Y-69835000D03*
%TO.P,U1,20,PA4*%
%TO.N,/PWR_ADC*%
X146415000Y-69335000D03*
%TO.P,U1,21,PA5*%
%TO.N,unconnected-(U1-PA5-Pad21)*%
X146415000Y-68835000D03*
%TO.P,U1,22,PA6*%
%TO.N,/E1B*%
X146415000Y-68335000D03*
%TO.P,U1,23,PA7*%
%TO.N,/E1A*%
X146415000Y-67835000D03*
%TO.P,U1,24,PC4*%
%TO.N,unconnected-(U1-PC4-Pad24)*%
X146415000Y-67335000D03*
%TO.P,U1,25,PC5*%
%TO.N,unconnected-(U1-PC5-Pad25)*%
X146415000Y-66835000D03*
%TO.P,U1,26,PB0*%
%TO.N,/uBUTTON*%
X146415000Y-66335000D03*
%TO.P,U1,27,PB1*%
%TO.N,unconnected-(U1-PB1-Pad27)*%
X146415000Y-65835000D03*
%TO.P,U1,28,PB2*%
%TO.N,/IMU_INT*%
X146415000Y-65335000D03*
%TO.P,U1,29,PB10*%
%TO.N,/IMU_I2C_SCL*%
X146415000Y-64835000D03*
%TO.P,U1,30,PB11*%
%TO.N,/IMU_I2C_SDA*%
X146415000Y-64335000D03*
%TO.P,U1,31,VSS*%
%TO.N,GND*%
X146415000Y-63835000D03*
%TO.P,U1,32,VDD*%
%TO.N,+3V3*%
X146415000Y-63335000D03*
D11*
%TO.P,U1,33,PB12*%
%TO.N,/PS2_CS*%
X144490000Y-61410000D03*
%TO.P,U1,34,PB13*%
%TO.N,/PS2_SCK*%
X143990000Y-61410000D03*
%TO.P,U1,35,PB14*%
%TO.N,/PS2_MISO*%
X143490000Y-61410000D03*
%TO.P,U1,36,PB15*%
%TO.N,/PS2_MOSI*%
X142990000Y-61410000D03*
%TO.P,U1,37,PC6*%
%TO.N,/AN1*%
X142490000Y-61410000D03*
%TO.P,U1,38,PC7*%
%TO.N,/AN2*%
X141990000Y-61410000D03*
%TO.P,U1,39,PC8*%
%TO.N,/BN1*%
X141490000Y-61410000D03*
%TO.P,U1,40,PC9*%
%TO.N,/BN2*%
X140990000Y-61410000D03*
%TO.P,U1,41,PA8*%
%TO.N,/BL_WAKEUP*%
X140490000Y-61410000D03*
%TO.P,U1,42,PA9*%
%TO.N,/BL_RX*%
X139990000Y-61410000D03*
%TO.P,U1,43,PA10*%
%TO.N,/BL_TX*%
X139490000Y-61410000D03*
%TO.P,U1,44,USB_DM*%
%TO.N,/USB_D-*%
X138990000Y-61410000D03*
%TO.P,U1,45,USB_DP*%
%TO.N,/USB_D+*%
X138490000Y-61410000D03*
%TO.P,U1,46,SYS_JTMS-SWDIO*%
%TO.N,/SWDIO*%
X137990000Y-61410000D03*
%TO.P,U1,47,VSS*%
%TO.N,GND*%
X137490000Y-61410000D03*
%TO.P,U1,48,VDD*%
%TO.N,+3V3*%
X136990000Y-61410000D03*
D12*
%TO.P,U1,49,SYS_JTCK-SWCLK*%
%TO.N,/SWCLK*%
X135065000Y-63335000D03*
%TO.P,U1,50,PA15*%
%TO.N,unconnected-(U1-PA15-Pad50)*%
X135065000Y-63835000D03*
%TO.P,U1,51,PC10*%
%TO.N,/USER_TX*%
X135065000Y-64335000D03*
%TO.P,U1,52,PC11*%
%TO.N,/USER_RX*%
X135065000Y-64835000D03*
%TO.P,U1,53,PC12*%
%TO.N,/X4*%
X135065000Y-65335000D03*
%TO.P,U1,54,PD2*%
%TO.N,/X3*%
X135065000Y-65835000D03*
%TO.P,U1,55,PB3*%
%TO.N,/X2*%
X135065000Y-66335000D03*
%TO.P,U1,56,PB4*%
%TO.N,/X1*%
X135065000Y-66835000D03*
%TO.P,U1,57,PB5*%
%TO.N,unconnected-(U1-PB5-Pad57)*%
X135065000Y-67335000D03*
%TO.P,U1,58,PB6*%
%TO.N,/E2B*%
X135065000Y-67835000D03*
%TO.P,U1,59,PB7*%
%TO.N,/E2A*%
X135065000Y-68335000D03*
%TO.P,U1,60,BOOT0*%
%TO.N,/BOOT*%
X135065000Y-68835000D03*
%TO.P,U1,61,PB8*%
%TO.N,unconnected-(U1-PB8-Pad61)*%
X135065000Y-69335000D03*
%TO.P,U1,62,PB9*%
%TO.N,/RGB_DIN*%
X135065000Y-69835000D03*
%TO.P,U1,63,VSS*%
%TO.N,GND*%
X135065000Y-70335000D03*
%TO.P,U1,64,VDD*%
%TO.N,+3V3*%
X135065000Y-70835000D03*
%TD*%
D13*
%TO.P,R9,1*%
%TO.N,+5V*%
X128117500Y-81300000D03*
%TO.P,R9,2*%
%TO.N,Net-(LED1-DIN)*%
X126117500Y-81300000D03*
%TD*%
D14*
%TO.P,R3,1*%
%TO.N,/USB_CONN_D-*%
X139860000Y-43735000D03*
%TO.P,R3,2*%
%TO.N,/D-*%
X139860000Y-41735000D03*
%TD*%
D15*
%TO.P,C12,1*%
%TO.N,+5V*%
X97200000Y-97150000D03*
%TO.P,C12,2*%
%TO.N,GND*%
X99275000Y-97150000D03*
%TD*%
D16*
%TO.P,J9,1,Pin_1*%
%TO.N,+3V3*%
X178500000Y-49800000D03*
D17*
%TO.P,J9,2,Pin_2*%
%TO.N,/PS2_SCK*%
X178500000Y-47260000D03*
%TO.P,J9,3,Pin_3*%
%TO.N,unconnected-(J9-Pin_3-Pad3)*%
X178500000Y-44720000D03*
%TO.P,J9,4,Pin_4*%
%TO.N,/PS2_CS*%
X178500000Y-42180000D03*
%TO.P,J9,5,Pin_5*%
%TO.N,GND*%
X178500000Y-39640000D03*
%TO.P,J9,6,Pin_6*%
%TO.N,/PS2_MISO*%
X178500000Y-37100000D03*
%TO.P,J9,7,Pin_7*%
%TO.N,/PS2_MOSI*%
X178500000Y-34560000D03*
%TD*%
D18*
%TO.P,J8,1,Pin_1*%
%TO.N,/E2A*%
X157890000Y-100070000D03*
D19*
%TO.P,J8,2,Pin_2*%
%TO.N,/E2B*%
X157890000Y-97570000D03*
%TO.P,J8,3,Pin_3*%
%TO.N,/E1A*%
X157890000Y-95070000D03*
%TO.P,J8,4,Pin_4*%
%TO.N,/E1B*%
X157890000Y-92570000D03*
%TO.P,J8,5,Pin_5*%
%TO.N,/PWR_ADC*%
X157890000Y-90070000D03*
%TD*%
D16*
%TO.P,J2,1,Pin_1*%
%TO.N,+5V*%
X176465000Y-79835000D03*
D17*
%TO.P,J2,2,Pin_2*%
%TO.N,GND*%
X176465000Y-77295000D03*
%TO.P,J2,3,Pin_3*%
%TO.N,/IMU_I2C_SCL*%
X176465000Y-74755000D03*
%TO.P,J2,4,Pin_4*%
%TO.N,/IMU_I2C_SDA*%
X176465000Y-72215000D03*
%TO.P,J2,5,Pin_5*%
%TO.N,unconnected-(J2-Pin_5-Pad5)*%
X176465000Y-69675000D03*
%TO.P,J2,6,Pin_6*%
%TO.N,unconnected-(J2-Pin_6-Pad6)*%
X176465000Y-67135000D03*
%TO.P,J2,7,Pin_7*%
%TO.N,unconnected-(J2-Pin_7-Pad7)*%
X176465000Y-64595000D03*
%TO.P,J2,8,Pin_8*%
%TO.N,/IMU_INT*%
X176465000Y-62055000D03*
%TD*%
D20*
%TO.P,D4,1,K*%
%TO.N,GND*%
X148410000Y-33500000D03*
%TO.P,D4,2,A*%
%TO.N,Net-(D4-A)*%
X148410000Y-31450000D03*
%TD*%
D21*
%TO.P,Q1,1,G*%
%TO.N,+3V3*%
X126210000Y-77360000D03*
%TO.P,Q1,2,S*%
%TO.N,Net-(LED1-DIN)*%
X126210000Y-79260000D03*
%TO.P,Q1,3,D*%
%TO.N,/RGB_DIN*%
X128085000Y-78310000D03*
%TD*%
D22*
%TO.P,D3,1,K*%
%TO.N,GND*%
X130690000Y-75155000D03*
%TO.P,D3,2,A*%
%TO.N,Net-(D3-A)*%
X130690000Y-77205000D03*
%TD*%
D23*
%TO.P,R5,1*%
%TO.N,+3V3*%
X145347500Y-81570000D03*
%TO.P,R5,2*%
%TO.N,Net-(D2-A)*%
X147347500Y-81570000D03*
%TD*%
D24*
%TO.P,LED1,1,VDD*%
%TO.N,+5V*%
X97150000Y-100700000D03*
%TO.P,LED1,2,DOUT*%
%TO.N,Net-(LED1-DOUT)*%
X97150000Y-103900000D03*
%TO.P,LED1,3,VSS*%
%TO.N,GND*%
X101550000Y-103900000D03*
%TO.P,LED1,4,DIN*%
%TO.N,Net-(LED1-DIN)*%
X101550000Y-100700000D03*
%TD*%
D22*
%TO.P,F1,1*%
%TO.N,Net-(J1-VBUS)*%
X142670000Y-40210000D03*
%TO.P,F1,2*%
%TO.N,Vusb*%
X142670000Y-42260000D03*
%TD*%
D25*
%TO.P,C9,1*%
%TO.N,/OSC_IN*%
X138337500Y-75730000D03*
%TO.P,C9,2*%
%TO.N,GND*%
X136262500Y-75730000D03*
%TD*%
D13*
%TO.P,R10,1*%
%TO.N,/RGB_DIN*%
X128117500Y-75210000D03*
%TO.P,R10,2*%
%TO.N,+3V3*%
X126117500Y-75210000D03*
%TD*%
D16*
%TO.P,J4,1,Pin_1*%
%TO.N,+3V3*%
X116160000Y-40040000D03*
D17*
%TO.P,J4,2,Pin_2*%
%TO.N,/SWCLK*%
X118700000Y-40040000D03*
%TO.P,J4,3,Pin_3*%
%TO.N,GND*%
X121240000Y-40040000D03*
%TO.P,J4,4,Pin_4*%
%TO.N,/SWDIO*%
X123780000Y-40040000D03*
%TD*%
D23*
%TO.P,R8,1*%
%TO.N,+3V3*%
X175000000Y-86410000D03*
%TO.P,R8,2*%
%TO.N,/uBUTTON*%
X177000000Y-86410000D03*
%TD*%
D26*
%TO.P,J11,1,Pin_1*%
%TO.N,+3V3*%
X98720000Y-46270000D03*
D19*
%TO.P,J11,2,Pin_2*%
%TO.N,/USER_TX*%
X98720000Y-48770000D03*
%TO.P,J11,3,Pin_3*%
%TO.N,/USER_RX*%
X98720000Y-51270000D03*
%TO.P,J11,4,Pin_4*%
%TO.N,GND*%
X98720000Y-53770000D03*
%TD*%
D27*
%TO.P,MDBT42T-AT1,1,GND@1*%
%TO.N,GND*%
X155200000Y-30540000D03*
D28*
%TO.P,MDBT42T-AT1,2,NC@2*%
%TO.N,unconnected-(MDBT42T-AT1-NC@2-Pad2)*%
X155200000Y-31340000D03*
%TO.P,MDBT42T-AT1,3,NC@3*%
%TO.N,unconnected-(MDBT42T-AT1-NC@3-Pad3)*%
X155200000Y-32040000D03*
%TO.P,MDBT42T-AT1,4,RESET*%
%TO.N,unconnected-(MDBT42T-AT1-RESET-Pad4)*%
X155200000Y-32740000D03*
%TO.P,MDBT42T-AT1,5,INDICATOR*%
%TO.N,Net-(MDBT42T-AT1-INDICATOR)*%
X155200000Y-33440000D03*
%TO.P,MDBT42T-AT1,6,WAKEUP*%
%TO.N,/BL_WAKEUP*%
X155200000Y-34140000D03*
%TO.P,MDBT42T-AT1,7,TX*%
%TO.N,/BL_TX*%
X155200000Y-34840000D03*
%TO.P,MDBT42T-AT1,8,RX*%
%TO.N,/BL_RX*%
X155200000Y-35540000D03*
%TO.P,MDBT42T-AT1,9,UART_PD*%
%TO.N,GND*%
X155200000Y-36240000D03*
D29*
%TO.P,MDBT42T-AT1,10,GND@10*%
X156300000Y-37740000D03*
%TO.P,MDBT42T-AT1,11,ADC*%
%TO.N,unconnected-(MDBT42T-AT1-ADC-Pad11)*%
X157000000Y-37740000D03*
%TO.P,MDBT42T-AT1,12,FLASH_DEFAULT*%
%TO.N,GND*%
X157700000Y-37740000D03*
%TO.P,MDBT42T-AT1,13,RTS/XL2*%
%TO.N,unconnected-(MDBT42T-AT1-RTS{slash}XL2-Pad13)*%
X158400000Y-37740000D03*
%TO.P,MDBT42T-AT1,14,CTS/XL1*%
%TO.N,unconnected-(MDBT42T-AT1-CTS{slash}XL1-Pad14)*%
X159100000Y-37740000D03*
%TO.P,MDBT42T-AT1,15,VDD*%
%TO.N,+3V3*%
X159800000Y-37740000D03*
%TO.P,MDBT42T-AT1,16,GND@16*%
%TO.N,GND*%
X160500000Y-37740000D03*
D28*
%TO.P,MDBT42T-AT1,17,DCC*%
%TO.N,unconnected-(MDBT42T-AT1-DCC-Pad17)*%
X161600000Y-36240000D03*
%TO.P,MDBT42T-AT1,18,DEC4*%
%TO.N,unconnected-(MDBT42T-AT1-DEC4-Pad18)*%
X161600000Y-35540000D03*
D27*
%TO.P,MDBT42T-AT1,19,GND@19*%
%TO.N,GND*%
X161600000Y-30540000D03*
%TD*%
D25*
%TO.P,C2,1*%
%TO.N,+3V3*%
X135577500Y-60340000D03*
%TO.P,C2,2*%
%TO.N,GND*%
X133502500Y-60340000D03*
%TD*%
D10*
%TO.P,R6,1*%
%TO.N,/USER_LED*%
X132960000Y-75150000D03*
%TO.P,R6,2*%
%TO.N,Net-(D3-A)*%
X132960000Y-77150000D03*
%TD*%
D14*
%TO.P,R7,1*%
%TO.N,Net-(MDBT42T-AT1-INDICATOR)*%
X150640000Y-33475000D03*
%TO.P,R7,2*%
%TO.N,Net-(D4-A)*%
X150640000Y-31475000D03*
%TD*%
D30*
%TO.P,C4,1*%
%TO.N,+3V3*%
X148960000Y-70302500D03*
%TO.P,C4,2*%
%TO.N,GND*%
X148960000Y-72377500D03*
%TD*%
D31*
%TO.P,U2,1,I/O1*%
%TO.N,/USB_CONN_D-*%
X139730000Y-47510000D03*
%TO.P,U2,2,GND*%
%TO.N,GND*%
X138780000Y-47510000D03*
%TO.P,U2,3,I/O2*%
%TO.N,/USB_CONN_D+*%
X137830000Y-47510000D03*
%TO.P,U2,4,I/O2*%
%TO.N,/USB_D+*%
X137830000Y-49785000D03*
%TO.P,U2,5,VBUS*%
%TO.N,Vusb*%
X138780000Y-49785000D03*
%TO.P,U2,6,I/O1*%
%TO.N,/USB_D-*%
X139730000Y-49785000D03*
%TD*%
D15*
%TO.P,C5,1*%
%TO.N,+3V3*%
X145352500Y-76290000D03*
%TO.P,C5,2*%
%TO.N,GND*%
X147427500Y-76290000D03*
%TD*%
D16*
%TO.P,J3,1,Pin_1*%
%TO.N,+5V*%
X134460000Y-103485000D03*
D17*
%TO.P,J3,2,Pin_2*%
%TO.N,/ULTRA_TRIG*%
X137000000Y-103485000D03*
%TO.P,J3,3,Pin_3*%
%TO.N,/ULTRA_ECHO*%
X139540000Y-103485000D03*
%TO.P,J3,4,Pin_4*%
%TO.N,GND*%
X142080000Y-103485000D03*
%TD*%
D32*
%TO.P,J7,1,Pin_1*%
%TO.N,/AN2*%
X152510000Y-49370000D03*
D33*
%TO.P,J7,2,Pin_2*%
%TO.N,/AN1*%
X155010000Y-49370000D03*
%TO.P,J7,3,Pin_3*%
%TO.N,/BN2*%
X157510000Y-49370000D03*
%TO.P,J7,4,Pin_4*%
%TO.N,/BN1*%
X160010000Y-49370000D03*
%TD*%
D34*
%TO.P,Y2,1,1*%
%TO.N,/OSC_IN*%
X137952500Y-79920000D03*
%TO.P,Y2,2,2*%
%TO.N,GND*%
X140152500Y-79920000D03*
%TO.P,Y2,3,3*%
%TO.N,/OSC_OUT*%
X140152500Y-78220000D03*
%TO.P,Y2,4,4*%
%TO.N,GND*%
X137952500Y-78220000D03*
%TD*%
D35*
%TO.P,SW1,1,A*%
%TO.N,GND*%
X134220000Y-84280000D03*
%TO.P,SW1,2,B*%
%TO.N,/RESET*%
X140920000Y-84280000D03*
%TD*%
D15*
%TO.P,C6,1*%
%TO.N,+3V3*%
X145352500Y-78580000D03*
%TO.P,C6,2*%
%TO.N,GND*%
X147427500Y-78580000D03*
%TD*%
D36*
%TO.P,J5,1,Pin_1*%
%TO.N,+5V*%
X111750000Y-99875000D03*
D37*
%TO.P,J5,2,Pin_2*%
%TO.N,GND*%
X114250000Y-99875000D03*
%TD*%
D38*
%TO.P,D2,1,K*%
%TO.N,GND*%
X149492500Y-83950000D03*
%TO.P,D2,2,A*%
%TO.N,Net-(D2-A)*%
X147442500Y-83950000D03*
%TD*%
D25*
%TO.P,C1,1*%
%TO.N,+3V3*%
X134137500Y-72690000D03*
%TO.P,C1,2*%
%TO.N,GND*%
X132062500Y-72690000D03*
%TD*%
D24*
%TO.P,LED2,1,VDD*%
%TO.N,+5V*%
X177760000Y-103740000D03*
%TO.P,LED2,2,DOUT*%
%TO.N,unconnected-(LED2-DOUT-Pad2)*%
X177760000Y-100540000D03*
%TO.P,LED2,3,VSS*%
%TO.N,GND*%
X173360000Y-100540000D03*
%TO.P,LED2,4,DIN*%
%TO.N,Net-(LED1-DOUT)*%
X173360000Y-103740000D03*
%TD*%
D15*
%TO.P,C8,1*%
%TO.N,/OSC_OUT*%
X140312500Y-76140000D03*
%TO.P,C8,2*%
%TO.N,GND*%
X142387500Y-76140000D03*
%TD*%
D13*
%TO.P,R1,1*%
%TO.N,/BOOT*%
X121300000Y-69810000D03*
%TO.P,R1,2*%
%TO.N,Net-(R1-Pad2)*%
X119300000Y-69810000D03*
%TD*%
D18*
%TO.P,J10,1,Pin_1*%
%TO.N,+3V3*%
X97510000Y-78760000D03*
D19*
%TO.P,J10,2,Pin_2*%
%TO.N,/X1*%
X97510000Y-76260000D03*
%TO.P,J10,3,Pin_3*%
%TO.N,/X2*%
X97510000Y-73760000D03*
%TO.P,J10,4,Pin_4*%
%TO.N,/X3*%
X97510000Y-71260000D03*
%TO.P,J10,5,Pin_5*%
%TO.N,/X4*%
X97510000Y-68760000D03*
%TO.P,J10,6,Pin_6*%
%TO.N,GND*%
X97510000Y-66260000D03*
%TD*%
D39*
%TO.P,C3,1*%
%TO.N,+3V3*%
X147470000Y-61457500D03*
%TO.P,C3,2*%
%TO.N,GND*%
X147470000Y-59382500D03*
%TD*%
D40*
%TO.P,SW2,1,A*%
%TO.N,/uBUTTON*%
X177200000Y-88835000D03*
X177200000Y-94085000D03*
%TO.P,SW2,2,B*%
%TO.N,GND*%
X174000000Y-88835000D03*
X174000000Y-94085000D03*
%TD*%
D20*
%TO.P,D1,1,K*%
%TO.N,GND*%
X147160000Y-42210000D03*
%TO.P,D1,2,A*%
%TO.N,Net-(D1-A)*%
X147160000Y-40160000D03*
%TD*%
D41*
%TO.P,S1,1*%
%TO.N,+3V3*%
X121610000Y-72880000D03*
%TO.P,S1,2*%
%TO.N,Net-(R1-Pad2)*%
X119110000Y-72880000D03*
%TO.P,S1,3*%
%TO.N,GND*%
X116610000Y-72880000D03*
%TO.P,S1,4*%
%TO.N,unconnected-(S1-Pad4)*%
X121610000Y-78380000D03*
%TO.P,S1,5*%
%TO.N,unconnected-(S1-Pad5)*%
X119110000Y-78380000D03*
%TO.P,S1,6*%
%TO.N,unconnected-(S1-Pad6)*%
X116610000Y-78380000D03*
%TD*%
D25*
%TO.P,C11,1*%
%TO.N,+5V*%
X177747500Y-107320000D03*
%TO.P,C11,2*%
%TO.N,GND*%
X175672500Y-107320000D03*
%TD*%
D42*
%TO.P,J1,1,VBUS*%
%TO.N,Net-(J1-VBUS)*%
X139980000Y-37000000D03*
%TO.P,J1,2,D-*%
%TO.N,/D-*%
X139180000Y-37000000D03*
%TO.P,J1,3,D+*%
%TO.N,/D+*%
X138380000Y-37000000D03*
%TO.P,J1,4,ID*%
%TO.N,unconnected-(J1-ID-Pad4)*%
X137580000Y-37000000D03*
%TO.P,J1,5,GND*%
%TO.N,GND*%
X136780000Y-37000000D03*
D43*
%TO.P,J1,6,Shield*%
X142830000Y-36900000D03*
X142830000Y-31450000D03*
X133930000Y-36900000D03*
X133930000Y-31450000D03*
%TD*%
D25*
%TO.P,C7,1*%
%TO.N,/RESET*%
X138247500Y-88630000D03*
%TO.P,C7,2*%
%TO.N,GND*%
X136172500Y-88630000D03*
%TD*%
D14*
%TO.P,R4,1*%
%TO.N,Vusb*%
X144880000Y-42215000D03*
%TO.P,R4,2*%
%TO.N,Net-(D1-A)*%
X144880000Y-40215000D03*
%TD*%
D36*
%TO.P,J6,1,Pin_1*%
%TO.N,+3V3*%
X122580000Y-99900000D03*
D37*
%TO.P,J6,2,Pin_2*%
%TO.N,GND*%
X125080000Y-99900000D03*
%TD*%
D44*
%TO.N,GND*%
X152010266Y-34209064D03*
X152527880Y-36711467D03*
X128158926Y-72809594D03*
X129367425Y-75056648D03*
X136892317Y-69006139D03*
X138240704Y-70239992D03*
X144219506Y-70470070D03*
X141501480Y-70468551D03*
X144195364Y-74152415D03*
X147459562Y-73725573D03*
X168199568Y-98983254D03*
X171497703Y-97007560D03*
X155263828Y-70758507D03*
X99627328Y-66257767D03*
%TO.N,/BL_WAKEUP*%
X151340211Y-36425050D03*
%TO.N,+3V3*%
X154446405Y-71868956D03*
%TO.N,GND*%
X177858744Y-77262615D03*
X177621873Y-40769299D03*
X122467056Y-39296329D03*
X96559334Y-53869482D03*
X143443394Y-104821771D03*
X116211571Y-100052783D03*
%TO.N,+3V3*%
X151107100Y-71699470D03*
X127945473Y-73929688D03*
X129688761Y-73959824D03*
%TO.N,/E2B*%
X170578757Y-97879593D03*
X168867223Y-97924633D03*
%TO.N,/E2A*%
X137191711Y-71135002D03*
X142363000Y-71437450D03*
X136337922Y-70207083D03*
X143617000Y-71485000D03*
X145425112Y-72930354D03*
X146237469Y-73891422D03*
%TO.N,/BL_WAKEUP*%
X153931212Y-34213000D03*
%TO.N,GND*%
X135300000Y-31060000D03*
X135310000Y-31970000D03*
X138320000Y-48630000D03*
X101550000Y-104940000D03*
X136780000Y-35480000D03*
X137200000Y-59890000D03*
X135310000Y-36460000D03*
X100250000Y-97140000D03*
X148430000Y-76280000D03*
X133260000Y-70570000D03*
X160490000Y-38990000D03*
X156300000Y-38970000D03*
X135310000Y-75730000D03*
X141240000Y-79920000D03*
X116610000Y-74610000D03*
X162820000Y-30550000D03*
X150070000Y-72380000D03*
X174000000Y-92900000D03*
X132070000Y-71580000D03*
X133640000Y-85390000D03*
X141410000Y-36420000D03*
X145110000Y-70690000D03*
X173350000Y-99580000D03*
X153880000Y-30560000D03*
X148580000Y-83950000D03*
X135220000Y-88640000D03*
X141420000Y-37150000D03*
X141430000Y-31900000D03*
X141430000Y-31090000D03*
X157700000Y-38950000D03*
X175680000Y-106180000D03*
X148460000Y-78570000D03*
X137960000Y-77270000D03*
X148070000Y-63560000D03*
X148400000Y-32585000D03*
X154140426Y-36240000D03*
X130690000Y-76070000D03*
X133510000Y-59260000D03*
X142390000Y-77290000D03*
X173990000Y-90010000D03*
X142300000Y-74080000D03*
X147470000Y-58420000D03*
X135310000Y-37250000D03*
X147170000Y-41280000D03*
X126847417Y-100026391D03*
X151273417Y-73116477D03*
%TD*%
D45*
%TO.N,+3V3*%
X142520000Y-69835000D02*
X139372135Y-69835000D01*
X139372135Y-69835000D02*
X138747135Y-69210000D01*
X137949985Y-69210000D02*
X137464992Y-68725007D01*
X138747135Y-69210000D02*
X137949985Y-69210000D01*
X137191559Y-68139207D02*
X137191559Y-62458567D01*
X137464992Y-68725007D02*
X137464992Y-68412640D01*
X137464992Y-68412640D02*
X137191559Y-68139207D01*
X137191559Y-62458567D02*
X137012000Y-62279008D01*
X137012000Y-62279008D02*
X137012000Y-61432000D01*
X137012000Y-61432000D02*
X136990000Y-61410000D01*
X138380883Y-69210000D02*
X137140883Y-70450000D01*
X137140883Y-70450000D02*
X136990000Y-70450000D01*
X136990000Y-70450000D02*
X136605000Y-70835000D01*
X136605000Y-70835000D02*
X135065000Y-70835000D01*
%TO.N,/E2A*%
X136337922Y-70207083D02*
X136337922Y-69748755D01*
X136337922Y-69748755D02*
X136168000Y-69578833D01*
X136168000Y-69079008D02*
X136168000Y-68590992D01*
X136168000Y-69090992D02*
X136162008Y-69085000D01*
X136162008Y-69085000D02*
X136168000Y-69079008D01*
X136168000Y-69578833D02*
X136168000Y-69090992D01*
X136168000Y-68590992D02*
X135912008Y-68335000D01*
X135912008Y-68335000D02*
X135065000Y-68335000D01*
D46*
%TO.N,GND*%
X99627328Y-66257767D02*
X99625095Y-66260000D01*
X99625095Y-66260000D02*
X97510000Y-66260000D01*
D45*
%TO.N,/BL_WAKEUP*%
X153931212Y-34213000D02*
X155127000Y-34213000D01*
X155127000Y-34213000D02*
X155200000Y-34140000D01*
D47*
%TO.N,+3V3*%
X175000000Y-86410000D02*
X168966531Y-86410000D01*
X168966531Y-86410000D02*
X154446405Y-71889874D01*
X154446405Y-71889874D02*
X154446405Y-71868956D01*
D46*
%TO.N,GND*%
X176465000Y-77295000D02*
X177826359Y-77295000D01*
X177826359Y-77295000D02*
X177858744Y-77262615D01*
X178500000Y-39640000D02*
X178500000Y-39891172D01*
X178500000Y-39891172D02*
X177621873Y-40769299D01*
X121240000Y-40040000D02*
X121723385Y-40040000D01*
X121723385Y-40040000D02*
X122467056Y-39296329D01*
X98720000Y-53770000D02*
X96658816Y-53770000D01*
X96658816Y-53770000D02*
X96559334Y-53869482D01*
X143443394Y-104821771D02*
X142106623Y-103485000D01*
X142106623Y-103485000D02*
X142080000Y-103485000D01*
X114250000Y-99875000D02*
X116033788Y-99875000D01*
X116033788Y-99875000D02*
X116211571Y-100052783D01*
X125080000Y-99900000D02*
X126721026Y-99900000D01*
X126721026Y-99900000D02*
X126847417Y-100026391D01*
X125080000Y-99920000D02*
X125000000Y-100000000D01*
X125080000Y-99900000D02*
X125080000Y-99920000D01*
%TO.N,+5V*%
X135000000Y-106663024D02*
X134460000Y-106123024D01*
X134460000Y-106123024D02*
X134460000Y-103485000D01*
D45*
%TO.N,/E2B*%
X118674337Y-67835000D02*
X109134452Y-77374885D01*
X96207000Y-104613000D02*
X100267675Y-108673675D01*
X109134452Y-77374885D02*
X98186059Y-77374885D01*
X135065000Y-67835000D02*
X118674337Y-67835000D01*
X98186059Y-77374885D02*
X98122944Y-77438000D01*
X180518500Y-81532500D02*
X177643000Y-78657000D01*
X98122944Y-77438000D02*
X96682658Y-77438000D01*
X178030667Y-108673675D02*
X180518500Y-106185842D01*
X96207000Y-77913658D02*
X96207000Y-104613000D01*
X180518500Y-106185842D02*
X180518500Y-81532500D01*
X96682658Y-77438000D02*
X96207000Y-77913658D01*
X100267675Y-108673675D02*
X178030667Y-108673675D01*
X177643000Y-78657000D02*
X175287000Y-78657000D01*
X175287000Y-78657000D02*
X173473127Y-80470873D01*
X175508270Y-97879593D02*
X170578757Y-97879593D01*
X173473127Y-80470873D02*
X173473127Y-81258785D01*
X173473127Y-81258785D02*
X178028000Y-85813658D01*
X178028000Y-85813658D02*
X178028000Y-95359863D01*
X178028000Y-95359863D02*
X175508270Y-97879593D01*
D46*
%TO.N,Net-(LED1-DOUT)*%
X173360000Y-103740000D02*
X169854976Y-107245024D01*
X169854976Y-107245024D02*
X100495024Y-107245024D01*
X100495024Y-107245024D02*
X97150000Y-103900000D01*
D45*
%TO.N,+3V3*%
X134137500Y-72690000D02*
X132867676Y-73959824D01*
X132867676Y-73959824D02*
X129688761Y-73959824D01*
X127945473Y-73929688D02*
X127397812Y-73929688D01*
X127397812Y-73929688D02*
X126117500Y-75210000D01*
D46*
X122580000Y-99900000D02*
X120160000Y-97480000D01*
X120160000Y-97480000D02*
X106553000Y-97480000D01*
X106553000Y-97480000D02*
X102441500Y-101591500D01*
X102441500Y-101591500D02*
X100658500Y-101591500D01*
X122601500Y-80021500D02*
X126117500Y-76505500D01*
X100658500Y-101591500D02*
X100658500Y-98945805D01*
X100658500Y-98945805D02*
X119582805Y-80021500D01*
X119582805Y-80021500D02*
X122601500Y-80021500D01*
X126117500Y-76505500D02*
X126117500Y-75210000D01*
D45*
%TO.N,/E2B*%
X168867223Y-97924633D02*
X168512590Y-97570000D01*
X168512590Y-97570000D02*
X157890000Y-97570000D01*
%TO.N,/E2A*%
X145425112Y-72930354D02*
X145425112Y-71893239D01*
X142363000Y-71437450D02*
X142060552Y-71135002D01*
X145016873Y-71485000D02*
X143617000Y-71485000D01*
X145425112Y-71893239D02*
X145016873Y-71485000D01*
X142060552Y-71135002D02*
X137191711Y-71135002D01*
%TO.N,/ULTRA_ECHO*%
X146415000Y-70835000D02*
X146415000Y-72827179D01*
X144121676Y-98903324D02*
X139540000Y-103485000D01*
X146415000Y-72827179D02*
X144121676Y-75120503D01*
X144121676Y-75120503D02*
X144121676Y-98903324D01*
%TO.N,/E2A*%
X157890000Y-100070000D02*
X146324236Y-88504236D01*
X146324236Y-88504236D02*
X146324236Y-73978189D01*
X146324236Y-73978189D02*
X146237469Y-73891422D01*
%TO.N,/E1A*%
X146415000Y-67835000D02*
X149504819Y-67835000D01*
X149504819Y-67835000D02*
X159648000Y-77978181D01*
X159648000Y-77978181D02*
X159648000Y-93312000D01*
X159648000Y-93312000D02*
X157890000Y-95070000D01*
%TO.N,/E1B*%
X146415000Y-68335000D02*
X149361352Y-68335000D01*
X149361352Y-68335000D02*
X159193000Y-78166648D01*
X159193000Y-78166648D02*
X159193000Y-91267000D01*
X159193000Y-91267000D02*
X157890000Y-92570000D01*
%TO.N,/PWR_ADC*%
X146415000Y-69335000D02*
X149629342Y-69335000D01*
X149629342Y-69335000D02*
X157890000Y-77595658D01*
X157890000Y-77595658D02*
X157890000Y-90070000D01*
D46*
%TO.N,GND*%
X154140426Y-36240000D02*
X155200000Y-36240000D01*
D45*
%TO.N,/BL_RX*%
X139990000Y-61410000D02*
X139990000Y-52256935D01*
X139990000Y-52256935D02*
X149694542Y-42552392D01*
X149694542Y-42552392D02*
X149694542Y-36370019D01*
X149694542Y-36370019D02*
X150524561Y-35540000D01*
X150524561Y-35540000D02*
X155200000Y-35540000D01*
%TO.N,/BL_TX*%
X149239542Y-42363925D02*
X149239542Y-36181551D01*
X139490000Y-52113467D02*
X149239542Y-42363925D01*
X150581093Y-34840000D02*
X155200000Y-34840000D01*
X139490000Y-61410000D02*
X139490000Y-52113467D01*
X149239542Y-36181551D02*
X150581093Y-34840000D01*
%TO.N,/ULTRA_TRIG*%
X143490000Y-79570066D02*
X142431330Y-80628736D01*
X142431330Y-80628736D02*
X142431330Y-87560466D01*
X136691430Y-92588202D02*
X136691430Y-98892558D01*
X143490000Y-72760000D02*
X143490000Y-79570066D01*
X142431330Y-87560466D02*
X140199882Y-89791914D01*
X136107442Y-99476546D02*
X136107442Y-102592442D01*
X139487718Y-89791914D02*
X136691430Y-92588202D01*
X140199882Y-89791914D02*
X139487718Y-89791914D01*
X136691430Y-98892558D02*
X136107442Y-99476546D01*
X136107442Y-102592442D02*
X137000000Y-103485000D01*
%TO.N,+3V3*%
X142990000Y-72760000D02*
X142990000Y-71912992D01*
%TO.N,/RESET*%
X139990000Y-72760000D02*
X139990000Y-74066532D01*
X139990000Y-74066532D02*
X141410734Y-75487266D01*
X141410734Y-75487266D02*
X141410734Y-79202607D01*
X141410734Y-79202607D02*
X141868000Y-79659873D01*
X141868000Y-79659873D02*
X141868000Y-83332000D01*
X141868000Y-83332000D02*
X140920000Y-84280000D01*
%TO.N,/USER_LED*%
X132960000Y-75150000D02*
X134247000Y-73863000D01*
X134247000Y-73863000D02*
X137234008Y-73863000D01*
X137234008Y-73863000D02*
X137490000Y-73607008D01*
X137490000Y-73607008D02*
X137490000Y-72760000D01*
%TO.N,/IMU_I2C_SDA*%
X146415000Y-64335000D02*
X160927439Y-64335000D01*
X160927439Y-64335000D02*
X168807439Y-72215000D01*
X168807439Y-72215000D02*
X176465000Y-72215000D01*
%TO.N,/IMU_I2C_SCL*%
X146415000Y-64835000D02*
X158683106Y-64835000D01*
X158683106Y-64835000D02*
X158690653Y-64842547D01*
X158690653Y-64842547D02*
X159779453Y-64842547D01*
X169691906Y-74755000D02*
X176465000Y-74755000D01*
X159779453Y-64842547D02*
X169691906Y-74755000D01*
%TO.N,/IMU_INT*%
X146415000Y-65335000D02*
X158189468Y-65335000D01*
X158189468Y-65335000D02*
X168971468Y-76117000D01*
X178658037Y-64248037D02*
X176465000Y-62055000D01*
X168971468Y-76117000D02*
X178408230Y-76117000D01*
X178408230Y-76117000D02*
X178658037Y-75867193D01*
X178658037Y-75867193D02*
X178658037Y-64248037D01*
%TO.N,/uBUTTON*%
X146415000Y-66335000D02*
X156925000Y-66335000D01*
X156925000Y-66335000D02*
X177000000Y-86410000D01*
%TO.N,/RGB_DIN*%
X135065000Y-69835000D02*
X132926873Y-69835000D01*
X132926873Y-69835000D02*
X128117500Y-74644373D01*
X128117500Y-74644373D02*
X128117500Y-75210000D01*
D46*
%TO.N,+5V*%
X128117500Y-81300000D02*
X128117500Y-97142500D01*
X128117500Y-97142500D02*
X134460000Y-103485000D01*
D47*
%TO.N,+3V3*%
X145347500Y-81570000D02*
X145347500Y-94702000D01*
X169732626Y-104354500D02*
X169732626Y-87877374D01*
X169732626Y-87877374D02*
X171200000Y-86410000D01*
X145347500Y-94702000D02*
X155000000Y-104354500D01*
X155000000Y-104354500D02*
X169732626Y-104354500D01*
X171200000Y-86410000D02*
X175000000Y-86410000D01*
D46*
%TO.N,/uBUTTON*%
X177200000Y-88835000D02*
X177200000Y-86610000D01*
X177200000Y-86610000D02*
X177000000Y-86410000D01*
X177200000Y-94085000D02*
X177200000Y-88835000D01*
%TO.N,+5V*%
X180000000Y-83370000D02*
X180000000Y-100000000D01*
X176465000Y-79835000D02*
X180000000Y-83370000D01*
X180000000Y-100000000D02*
X177760000Y-102240000D01*
X177760000Y-102240000D02*
X177760000Y-103740000D01*
X177747500Y-107320000D02*
X177747500Y-103752500D01*
X177747500Y-103752500D02*
X177760000Y-103740000D01*
D45*
%TO.N,/X4*%
X97510000Y-68760000D02*
X114717740Y-68760000D01*
X114717740Y-68760000D02*
X118142740Y-65335000D01*
X118142740Y-65335000D02*
X135065000Y-65335000D01*
%TO.N,/X3*%
X97510000Y-71260000D02*
X112861208Y-71260000D01*
X118286208Y-65835000D02*
X135065000Y-65835000D01*
X112861208Y-71260000D02*
X118286208Y-65835000D01*
%TO.N,/X2*%
X97510000Y-73760000D02*
X111217710Y-73760000D01*
X111217710Y-73760000D02*
X118642710Y-66335000D01*
X118642710Y-66335000D02*
X135065000Y-66335000D01*
%TO.N,/X1*%
X97510000Y-76260000D02*
X109361178Y-76260000D01*
X109361178Y-76260000D02*
X118786178Y-66835000D01*
X118786178Y-66835000D02*
X135065000Y-66835000D01*
%TO.N,/BOOT*%
X121300000Y-69810000D02*
X122275000Y-68835000D01*
X122275000Y-68835000D02*
X135065000Y-68835000D01*
%TO.N,/BN2*%
X157510000Y-49370000D02*
X155427026Y-47287026D01*
X141035000Y-58809118D02*
X141035000Y-58965000D01*
X151475190Y-47612000D02*
X150491344Y-48595847D01*
X151823539Y-47612000D02*
X151475190Y-47612000D01*
X152148513Y-47287026D02*
X151823539Y-47612000D01*
X155427026Y-47287026D02*
X152148513Y-47287026D01*
X150491344Y-48595847D02*
X150491344Y-49352773D01*
X150491344Y-49352773D02*
X141035000Y-58809118D01*
X141035000Y-58965000D02*
X140990000Y-59010000D01*
X140990000Y-59010000D02*
X140990000Y-61410000D01*
D46*
%TO.N,+3V3*%
X178500000Y-49800000D02*
X164348280Y-49800000D01*
X164348280Y-49800000D02*
X152690780Y-61457500D01*
X152690780Y-61457500D02*
X147470000Y-61457500D01*
X178500000Y-49800000D02*
X180196500Y-48103500D01*
X180196500Y-48103500D02*
X180196500Y-34500753D01*
X180196500Y-34500753D02*
X179014247Y-33318500D01*
X179014247Y-33318500D02*
X162138500Y-33318500D01*
X162138500Y-33318500D02*
X159800000Y-35657000D01*
X159800000Y-35657000D02*
X159800000Y-37740000D01*
D45*
%TO.N,/PS2_SCK*%
X143990000Y-61410000D02*
X143990000Y-59714925D01*
X160230944Y-52226936D02*
X165197880Y-47260000D01*
X143990000Y-59714925D02*
X150005469Y-53699456D01*
X150005469Y-53699456D02*
X150754416Y-53699456D01*
X150754416Y-53699456D02*
X152226936Y-52226936D01*
X152226936Y-52226936D02*
X160230944Y-52226936D01*
X165197880Y-47260000D02*
X178500000Y-47260000D01*
%TO.N,/PS2_CS*%
X144490000Y-61410000D02*
X144490000Y-59935376D01*
X144490000Y-59935376D02*
X150270920Y-54154456D01*
X152453572Y-52681936D02*
X160514089Y-52681936D01*
X150981052Y-54154456D02*
X152453572Y-52681936D01*
X160514089Y-52681936D02*
X165107758Y-48088267D01*
X165107758Y-48088267D02*
X177662323Y-48088267D01*
X177662323Y-48088267D02*
X178012056Y-48438000D01*
X178012056Y-48438000D02*
X178987944Y-48438000D01*
X150270920Y-54154456D02*
X150981052Y-54154456D01*
X178987944Y-48438000D02*
X179678000Y-47747944D01*
X179678000Y-47747944D02*
X179678000Y-43358000D01*
X179678000Y-43358000D02*
X178500000Y-42180000D01*
%TO.N,/PS2_MISO*%
X143490000Y-61410000D02*
X143490000Y-59571457D01*
X143490000Y-59571457D02*
X149817001Y-53244456D01*
X149817001Y-53244456D02*
X150565948Y-53244456D01*
X150565948Y-53244456D02*
X152227404Y-51583000D01*
X152227404Y-51583000D02*
X160231412Y-51583000D01*
X160231412Y-51583000D02*
X162311232Y-49503180D01*
X162311232Y-49503180D02*
X162311232Y-46080889D01*
X162311232Y-46080889D02*
X171292121Y-37100000D01*
X171292121Y-37100000D02*
X178500000Y-37100000D01*
%TO.N,/AN2*%
X151401344Y-49729709D02*
X152150291Y-49729709D01*
X152150291Y-49729709D02*
X152510000Y-49370000D01*
%TO.N,/PS2_MOSI*%
X142990000Y-61410000D02*
X142990000Y-59427989D01*
X160042944Y-51128000D02*
X161670590Y-49500354D01*
X173017482Y-34560000D02*
X178500000Y-34560000D01*
X142990000Y-59427989D02*
X149628534Y-52789456D01*
X150377480Y-52789456D02*
X152038936Y-51128000D01*
X149628534Y-52789456D02*
X150377480Y-52789456D01*
X152038936Y-51128000D02*
X160042944Y-51128000D01*
X161670590Y-49500354D02*
X161670590Y-45906892D01*
X161670590Y-45906892D02*
X173017482Y-34560000D01*
%TO.N,/AN1*%
X155010000Y-49370000D02*
X153688000Y-49370000D01*
X153356342Y-50673000D02*
X151850468Y-50673000D01*
X151850468Y-50673000D02*
X150189012Y-52334456D01*
X153688000Y-49370000D02*
X153688000Y-50341342D01*
X153688000Y-50341342D02*
X153356342Y-50673000D01*
X149440065Y-52334456D02*
X142490000Y-59284521D01*
X142490000Y-59284521D02*
X142490000Y-61410000D01*
X150189012Y-52334456D02*
X149440065Y-52334456D01*
%TO.N,/AN2*%
X151401344Y-49729709D02*
X141990000Y-59141053D01*
X141990000Y-59141053D02*
X141990000Y-61410000D01*
%TO.N,/BN1*%
X150946344Y-48784314D02*
X150946344Y-49541241D01*
X141490000Y-58997585D02*
X141490000Y-61410000D01*
X156188000Y-48757056D02*
X155497944Y-48067000D01*
X156878056Y-50673000D02*
X156188000Y-49982944D01*
X151663658Y-48067000D02*
X150946344Y-48784314D01*
X155497944Y-48067000D02*
X151663658Y-48067000D01*
X156188000Y-49982944D02*
X156188000Y-48757056D01*
X158707000Y-50673000D02*
X156878056Y-50673000D01*
X150946344Y-49541241D02*
X141490000Y-58997585D01*
X160010000Y-49370000D02*
X158707000Y-50673000D01*
D46*
%TO.N,Net-(MDBT42T-AT1-INDICATOR)*%
X150640000Y-33475000D02*
X155165000Y-33475000D01*
X155165000Y-33475000D02*
X155200000Y-33440000D01*
%TO.N,Net-(D4-A)*%
X150640000Y-31475000D02*
X148435000Y-31475000D01*
X148435000Y-31475000D02*
X148410000Y-31450000D01*
%TO.N,Net-(LED1-DIN)*%
X126210000Y-79260000D02*
X126210000Y-81207500D01*
X126210000Y-81207500D02*
X126117500Y-81300000D01*
%TO.N,/RGB_DIN*%
X128117500Y-75210000D02*
X128117500Y-78277500D01*
X128117500Y-78277500D02*
X128085000Y-78310000D01*
%TO.N,+3V3*%
X126117500Y-75210000D02*
X126117500Y-77267500D01*
X126117500Y-77267500D02*
X126210000Y-77360000D01*
X121610000Y-72880000D02*
X122880000Y-72880000D01*
X122880000Y-72880000D02*
X125210000Y-75210000D01*
X125210000Y-75210000D02*
X126117500Y-75210000D01*
%TO.N,Net-(R1-Pad2)*%
X119300000Y-69810000D02*
X119300000Y-72690000D01*
X119300000Y-72690000D02*
X119110000Y-72880000D01*
%TO.N,+3V3*%
X97510000Y-78760000D02*
X113437929Y-78760000D01*
X113437929Y-78760000D02*
X117676429Y-74521500D01*
X119968500Y-74521500D02*
X121610000Y-72880000D01*
X117676429Y-74521500D02*
X119968500Y-74521500D01*
X116160000Y-40040000D02*
X117401500Y-38798500D01*
X117401500Y-38798500D02*
X119214247Y-38798500D01*
X119214247Y-38798500D02*
X119998500Y-39582753D01*
X119998500Y-39582753D02*
X119998500Y-44761000D01*
X119998500Y-44761000D02*
X135577500Y-60340000D01*
D45*
%TO.N,/SWDIO*%
X123780000Y-40040000D02*
X137990000Y-54250000D01*
X137990000Y-54250000D02*
X137990000Y-61410000D01*
%TO.N,/SWCLK*%
X135065000Y-63335000D02*
X133335000Y-63335000D01*
X133335000Y-63335000D02*
X118700000Y-48700000D01*
X118700000Y-48700000D02*
X118700000Y-40040000D01*
%TO.N,/USER_RX*%
X98720000Y-51270000D02*
X98733160Y-51256840D01*
X98733160Y-51256840D02*
X118116237Y-51256840D01*
X118116237Y-51256840D02*
X131694397Y-64835000D01*
X131694397Y-64835000D02*
X135065000Y-64835000D01*
%TO.N,/USER_TX*%
X98720000Y-48770000D02*
X116475208Y-48770000D01*
X116475208Y-48770000D02*
X132040208Y-64335000D01*
X132040208Y-64335000D02*
X135065000Y-64335000D01*
D46*
%TO.N,Net-(LED1-DIN)*%
X101550000Y-100700000D02*
X106058499Y-96191501D01*
X106058499Y-96191501D02*
X111225999Y-96191501D01*
X111225999Y-96191501D02*
X126117500Y-81300000D01*
%TO.N,+5V*%
X134460000Y-103485000D02*
X115360000Y-103485000D01*
X115360000Y-103485000D02*
X111750000Y-99875000D01*
X111750000Y-99875000D02*
X105125000Y-99875000D01*
X105125000Y-99875000D02*
X102810487Y-102189513D01*
X102810487Y-102189513D02*
X97201395Y-102189513D01*
X97201395Y-102189513D02*
X97201395Y-100751395D01*
X97201395Y-100751395D02*
X97150000Y-100700000D01*
X97200000Y-97150000D02*
X97200000Y-100650000D01*
X97200000Y-100650000D02*
X97150000Y-100700000D01*
%TO.N,/RESET*%
X138247500Y-88630000D02*
X140599861Y-88630000D01*
X140599861Y-88630000D02*
X140920000Y-88309861D01*
X140920000Y-88309861D02*
X140920000Y-84280000D01*
%TO.N,+3V3*%
X116160000Y-40040000D02*
X104950000Y-40040000D01*
X104950000Y-40040000D02*
X98720000Y-46270000D01*
D45*
%TO.N,Net-(U1-PA1)*%
X143990000Y-72760000D02*
X144490000Y-72760000D01*
%TO.N,+3V3*%
X147295000Y-63335000D02*
X147470000Y-63160000D01*
X133780000Y-71210000D02*
X133780000Y-72332500D01*
D47*
X145352500Y-78580000D02*
X145352500Y-76290000D01*
D45*
X135647500Y-60270000D02*
X135577500Y-60340000D01*
X148492500Y-69835000D02*
X148960000Y-70302500D01*
X147470000Y-63160000D02*
X147470000Y-61457500D01*
X142990000Y-72760000D02*
X142990000Y-70305000D01*
X142990000Y-70305000D02*
X142520000Y-69835000D01*
X136660000Y-60270000D02*
X135647500Y-60270000D01*
X136990000Y-61410000D02*
X136990000Y-60600000D01*
X144930000Y-69385000D02*
X144480000Y-69835000D01*
X145155000Y-63335000D02*
X144930000Y-63560000D01*
X136990000Y-60600000D02*
X136660000Y-60270000D01*
X133780000Y-72332500D02*
X134137500Y-72690000D01*
X144480000Y-69835000D02*
X142520000Y-69835000D01*
X144930000Y-63560000D02*
X144930000Y-69385000D01*
D47*
X145347500Y-78585000D02*
X145352500Y-78580000D01*
X145347500Y-81570000D02*
X145347500Y-78585000D01*
D45*
X134155000Y-70835000D02*
X133780000Y-71210000D01*
X146415000Y-69835000D02*
X148492500Y-69835000D01*
X146415000Y-63335000D02*
X147295000Y-63335000D01*
X146415000Y-69835000D02*
X144480000Y-69835000D01*
X135065000Y-70835000D02*
X134155000Y-70835000D01*
X146415000Y-63335000D02*
X145155000Y-63335000D01*
%TO.N,GND*%
X145465000Y-70335000D02*
X145110000Y-70690000D01*
D47*
X137960000Y-77270000D02*
X137960000Y-78212500D01*
X148430000Y-76280000D02*
X147437500Y-76280000D01*
X173360000Y-99590000D02*
X173350000Y-99580000D01*
X135310000Y-75730000D02*
X136262500Y-75730000D01*
D46*
X160500000Y-38980000D02*
X160490000Y-38990000D01*
D47*
X175672500Y-106187500D02*
X175680000Y-106180000D01*
X100240000Y-97150000D02*
X100250000Y-97140000D01*
D45*
X135065000Y-70335000D02*
X133495000Y-70335000D01*
D47*
X174000000Y-88835000D02*
X174000000Y-90000000D01*
D46*
X160500000Y-37740000D02*
X160500000Y-38980000D01*
D47*
X173360000Y-100540000D02*
X173360000Y-99590000D01*
X137960000Y-78212500D02*
X137952500Y-78220000D01*
X147437500Y-78570000D02*
X147427500Y-78580000D01*
X141240000Y-79920000D02*
X140152500Y-79920000D01*
X136172500Y-88630000D02*
X135230000Y-88630000D01*
D45*
X138780000Y-48170000D02*
X138320000Y-48630000D01*
D47*
X148410000Y-33500000D02*
X148410000Y-32595000D01*
D45*
X138780000Y-47510000D02*
X138780000Y-48170000D01*
D47*
X135230000Y-88630000D02*
X135220000Y-88640000D01*
X133510000Y-60332500D02*
X133502500Y-60340000D01*
D45*
X137490000Y-61410000D02*
X137490000Y-60180000D01*
X133495000Y-70335000D02*
X133260000Y-70570000D01*
D47*
X142390000Y-76142500D02*
X142387500Y-76140000D01*
D45*
X137490000Y-60180000D02*
X137200000Y-59890000D01*
D47*
X132070000Y-71580000D02*
X132070000Y-72682500D01*
D45*
X146415000Y-63835000D02*
X147795000Y-63835000D01*
D47*
X132070000Y-72682500D02*
X132062500Y-72690000D01*
D46*
X155200000Y-30540000D02*
X155180000Y-30560000D01*
D45*
X147795000Y-63835000D02*
X148070000Y-63560000D01*
D47*
X133640000Y-85390000D02*
X133640000Y-84860000D01*
X174000000Y-94085000D02*
X174000000Y-92900000D01*
D46*
X136780000Y-37000000D02*
X136780000Y-35480000D01*
D47*
X116610000Y-74610000D02*
X116610000Y-72880000D01*
D46*
X155180000Y-30560000D02*
X153880000Y-30560000D01*
D47*
X147170000Y-42200000D02*
X147160000Y-42210000D01*
X174000000Y-90000000D02*
X173990000Y-90010000D01*
X142390000Y-77290000D02*
X142390000Y-76142500D01*
X148962500Y-72380000D02*
X148960000Y-72377500D01*
X130690000Y-76070000D02*
X130690000Y-75155000D01*
D46*
X156300000Y-37740000D02*
X156300000Y-38970000D01*
X157700000Y-37740000D02*
X157700000Y-38950000D01*
D47*
X147470000Y-58420000D02*
X147470000Y-59382500D01*
D45*
X142490000Y-72760000D02*
X142490000Y-73890000D01*
D47*
X133510000Y-59260000D02*
X133510000Y-60332500D01*
X148580000Y-83950000D02*
X149492500Y-83950000D01*
X175672500Y-107320000D02*
X175672500Y-106187500D01*
X147170000Y-41280000D02*
X147170000Y-42200000D01*
X133640000Y-84860000D02*
X134220000Y-84280000D01*
X101550000Y-103900000D02*
X101550000Y-104940000D01*
D45*
X142490000Y-73890000D02*
X142300000Y-74080000D01*
D47*
X147437500Y-76280000D02*
X147427500Y-76290000D01*
D45*
X146415000Y-70335000D02*
X145465000Y-70335000D01*
D47*
X148460000Y-78570000D02*
X147437500Y-78570000D01*
X148410000Y-32595000D02*
X148400000Y-32585000D01*
D46*
X161600000Y-30540000D02*
X162810000Y-30540000D01*
D47*
X150070000Y-72380000D02*
X148962500Y-72380000D01*
D46*
X162810000Y-30540000D02*
X162820000Y-30550000D01*
D47*
X99275000Y-97150000D02*
X100240000Y-97150000D01*
D45*
%TO.N,/OSC_OUT*%
X140312500Y-75032500D02*
X140312500Y-76140000D01*
X139490000Y-74210000D02*
X140312500Y-75032500D01*
X140312500Y-78060000D02*
X140152500Y-78220000D01*
X139490000Y-72760000D02*
X139490000Y-74210000D01*
X140312500Y-76140000D02*
X140312500Y-78060000D01*
%TO.N,/OSC_IN*%
X138690000Y-79920000D02*
X139030000Y-79580000D01*
X137952500Y-79920000D02*
X138690000Y-79920000D01*
X138990000Y-73830000D02*
X138410000Y-74410000D01*
X139030000Y-76422500D02*
X138337500Y-75730000D01*
X138410000Y-74410000D02*
X138410000Y-75657500D01*
X139030000Y-79580000D02*
X139030000Y-76422500D01*
X138990000Y-72760000D02*
X138990000Y-73830000D01*
X138410000Y-75657500D02*
X138337500Y-75730000D01*
D47*
%TO.N,Net-(D1-A)*%
X147105000Y-40215000D02*
X144880000Y-40215000D01*
X147160000Y-40160000D02*
X147105000Y-40215000D01*
D48*
%TO.N,/D+*%
X138555000Y-38675001D02*
X138555000Y-40095000D01*
X138380000Y-38500001D02*
X138555000Y-38675001D01*
X138380000Y-37000000D02*
X138380000Y-38500001D01*
X138555000Y-40095000D02*
X137680000Y-40970000D01*
X137680000Y-40970000D02*
X137680000Y-41715000D01*
%TO.N,/D-*%
X139180000Y-38500001D02*
X139005000Y-38675001D01*
X139005000Y-40095000D02*
X139860000Y-40950000D01*
X139860000Y-40950000D02*
X139860000Y-41735000D01*
X139180000Y-37000000D02*
X139180000Y-38500001D01*
X139005000Y-38675001D02*
X139005000Y-40095000D01*
D46*
%TO.N,Net-(J1-VBUS)*%
X139980000Y-37000000D02*
X139980000Y-38590000D01*
X140330000Y-38940000D02*
X142300000Y-38940000D01*
X142300000Y-38940000D02*
X142670000Y-39310000D01*
X142670000Y-39310000D02*
X142670000Y-40210000D01*
X139980000Y-38590000D02*
X140330000Y-38940000D01*
D48*
%TO.N,/USB_CONN_D+*%
X138554999Y-45998197D02*
X137830000Y-46723196D01*
X137830000Y-46723196D02*
X137830000Y-47510000D01*
X137680000Y-43715000D02*
X138554999Y-44589999D01*
X138554999Y-44589999D02*
X138554999Y-45998197D01*
%TO.N,/USB_CONN_D-*%
X139730000Y-46536802D02*
X139730000Y-47510000D01*
X139005001Y-45811803D02*
X139730000Y-46536802D01*
X139005001Y-44589999D02*
X139005001Y-45811803D01*
X139860000Y-43735000D02*
X139005001Y-44589999D01*
D45*
%TO.N,Vusb*%
X138780000Y-49230000D02*
X139340000Y-48670000D01*
X139340000Y-48670000D02*
X142290000Y-48670000D01*
X142290000Y-48670000D02*
X142670000Y-48290000D01*
X138780000Y-49785000D02*
X138780000Y-49230000D01*
D47*
X142715000Y-42215000D02*
X142670000Y-42260000D01*
X144880000Y-42215000D02*
X142715000Y-42215000D01*
D45*
X142670000Y-48290000D02*
X142670000Y-42260000D01*
D48*
%TO.N,/USB_D+*%
X137830000Y-50778751D02*
X137830000Y-49785000D01*
X138490000Y-60247499D02*
X138515000Y-60222499D01*
X138490000Y-61410000D02*
X138490000Y-60247499D01*
X137830000Y-50778751D02*
X138515000Y-51463750D01*
X138515000Y-60222499D02*
X138515000Y-51463750D01*
%TO.N,/USB_D-*%
X138965000Y-51543751D02*
X139730000Y-50778751D01*
X138990000Y-60247499D02*
X138965000Y-60222499D01*
X139730000Y-50778751D02*
X139730000Y-49785000D01*
X138965000Y-60222499D02*
X138965000Y-51543751D01*
X138990000Y-61410000D02*
X138990000Y-60247499D01*
D47*
%TO.N,Net-(D2-A)*%
X147347500Y-83855000D02*
X147442500Y-83950000D01*
X147347500Y-81570000D02*
X147347500Y-83855000D01*
D45*
%TO.N,Net-(D3-A)*%
X130745000Y-77150000D02*
X130690000Y-77205000D01*
X132960000Y-77150000D02*
X130745000Y-77150000D01*
D46*
%TO.N,+5V*%
X168336976Y-106663024D02*
X135000000Y-106663024D01*
X177760000Y-103740000D02*
X176780000Y-102760000D01*
X172240000Y-102760000D02*
X168336976Y-106663024D01*
X135000000Y-104025000D02*
X134460000Y-103485000D01*
X176780000Y-102760000D02*
X172240000Y-102760000D01*
D47*
%TO.N,+3V3*%
X151107100Y-71699470D02*
X149710130Y-70302500D01*
X149710130Y-70302500D02*
X148960000Y-70302500D01*
D45*
%TO.N,/BL_WAKEUP*%
X153215372Y-39675031D02*
X140490000Y-52400403D01*
X153215372Y-38300211D02*
X153215372Y-39675031D01*
X151340211Y-36425050D02*
X153215372Y-38300211D01*
X140490000Y-52400403D02*
X140490000Y-61410000D01*
%TD*%
%TA.AperFunction,Conductor*%
%TO.N,GND*%
G36*
X141923832Y-35959685D02*
G01*
X141969587Y-36012489D01*
X141980786Y-36062660D01*
X141998645Y-37714660D01*
X141979686Y-37781908D01*
X141927380Y-37828231D01*
X141874652Y-37840000D01*
X141114000Y-37840000D01*
X141046961Y-37820315D01*
X141001206Y-37767511D01*
X140990000Y-37716000D01*
X140990000Y-36064000D01*
X141009685Y-35996961D01*
X141062489Y-35951206D01*
X141114000Y-35940000D01*
X141856793Y-35940000D01*
X141923832Y-35959685D01*
G37*
%TD.AperFunction*%
%TD*%
%TA.AperFunction,Conductor*%
%TO.N,GND*%
G36*
X142013832Y-30549685D02*
G01*
X142059587Y-30602489D01*
X142070786Y-30652660D01*
X142088645Y-32304660D01*
X142069686Y-32371908D01*
X142017380Y-32418231D01*
X141964652Y-32430000D01*
X141204000Y-32430000D01*
X141136961Y-32410315D01*
X141091206Y-32357511D01*
X141080000Y-32306000D01*
X141080000Y-30654000D01*
X141099685Y-30586961D01*
X141152489Y-30541206D01*
X141204000Y-30530000D01*
X141946793Y-30530000D01*
X142013832Y-30549685D01*
G37*
%TD.AperFunction*%
%TD*%
%TA.AperFunction,Conductor*%
%TO.N,GND*%
G36*
X135703832Y-35959685D02*
G01*
X135749587Y-36012489D01*
X135760786Y-36062660D01*
X135778645Y-37714660D01*
X135759686Y-37781908D01*
X135707380Y-37828231D01*
X135654652Y-37840000D01*
X134894000Y-37840000D01*
X134826961Y-37820315D01*
X134781206Y-37767511D01*
X134770000Y-37716000D01*
X134770000Y-36064000D01*
X134789685Y-35996961D01*
X134842489Y-35951206D01*
X134894000Y-35940000D01*
X135636793Y-35940000D01*
X135703832Y-35959685D01*
G37*
%TD.AperFunction*%
%TD*%
%TA.AperFunction,Conductor*%
%TO.N,GND*%
G36*
X135653832Y-30559685D02*
G01*
X135699587Y-30612489D01*
X135710786Y-30662660D01*
X135728645Y-32314660D01*
X135709686Y-32381908D01*
X135657380Y-32428231D01*
X135604652Y-32440000D01*
X134844000Y-32440000D01*
X134776961Y-32420315D01*
X134731206Y-32367511D01*
X134720000Y-32316000D01*
X134720000Y-30664000D01*
X134739685Y-30596961D01*
X134792489Y-30551206D01*
X134844000Y-30540000D01*
X135586793Y-30540000D01*
X135653832Y-30559685D01*
G37*
%TD.AperFunction*%
%TD*%
M02*
